<svg width="1600" height="900" viewBox="0 0 1600 900" xmlns="http://www.w3.org/2000/svg" role="img" aria-labelledby="title desc">
  <title id="title">Illustration einer islamischen Bibliothek</title>
  <desc id="desc">Sanfte Illustration mit Arkaden, Bücherregalen und warmen Farbtönen</desc>
  <defs>
    <linearGradient id="sky" x1="0" y1="0" x2="0" y2="1">
      <stop offset="0%" stop-color="#e6f3ff" />
      <stop offset="60%" stop-color="#f7f2e6" />
      <stop offset="100%" stop-color="#f1e7d7" />
    </linearGradient>
    <linearGradient id="arch" x1="0" y1="0" x2="1" y2="1">
      <stop offset="0%" stop-color="#0f6377" stop-opacity="0.9" />
      <stop offset="100%" stop-color="#0a2f3c" stop-opacity="0.9" />
    </linearGradient>
    <linearGradient id="floor" x1="0" y1="0" x2="1" y2="0">
      <stop offset="0%" stop-color="#f5e4c8" />
      <stop offset="100%" stop-color="#e8d7b6" />
    </linearGradient>
  </defs>

  <rect width="1600" height="900" fill="url(#sky)" />
  <rect y="600" width="1600" height="300" fill="url(#floor)" />

  <g opacity="0.16">
    <circle cx="140" cy="180" r="140" fill="#0f6377" />
    <circle cx="1420" cy="120" r="160" fill="#c89d2a" />
    <circle cx="820" cy="220" r="120" fill="#0a2f3c" />
  </g>

  <g transform="translate(180 240)">
    <rect x="0" y="120" width="1240" height="380" rx="26" fill="rgba(255,255,255,0.78)" stroke="#d9c8a6" stroke-width="4" />
    <path d="M0 150 Q620 -90 1240 150" fill="url(#arch)" opacity="0.18" />
    <path d="M40 150 Q620 -40 1200 150" fill="url(#arch)" opacity="0.32" />

    <g fill="#d9c8a6" opacity="0.9">
      <rect x="120" y="200" width="80" height="260" rx="8" />
      <rect x="120" y="200" width="360" height="24" />
      <rect x="560" y="200" width="80" height="260" rx="8" />
      <rect x="560" y="200" width="520" height="24" />
      <rect x="1040" y="200" width="80" height="260" rx="8" />
    </g>

    <g>
      <rect x="180" y="220" width="60" height="200" rx="6" fill="#0f6377" />
      <rect x="250" y="220" width="54" height="200" rx="6" fill="#c89d2a" />
      <rect x="316" y="220" width="48" height="200" rx="6" fill="#0b6b82" />
      <rect x="382" y="220" width="44" height="200" rx="6" fill="#d9843b" />
      <rect x="620" y="220" width="60" height="200" rx="6" fill="#0f6377" />
      <rect x="690" y="220" width="54" height="200" rx="6" fill="#c89d2a" />
      <rect x="756" y="220" width="48" height="200" rx="6" fill="#0b6b82" />
      <rect x="822" y="220" width="44" height="200" rx="6" fill="#d9843b" />
      <rect x="888" y="220" width="60" height="200" rx="6" fill="#0f6377" />
    </g>

    <g opacity="0.14" stroke="#0f6377" stroke-width="3" fill="none">
      <path d="M0 150 Q620 -90 1240 150" />
      <path d="M80 160 Q620 -60 1160 160" />
    </g>
  </g>

  <g opacity="0.4">
    <rect x="80" y="640" width="220" height="10" rx="5" fill="#bfa67b" />
    <rect x="1300" y="660" width="180" height="10" rx="5" fill="#bfa67b" />
  </g>
</svg>
